<?xml version="1.0" encoding="utf-8"?>
<!-- Generator: Adobe Illustrator 26.3.1, SVG Export Plug-In . SVG Version: 6.00 Build 0)  -->
<svg version="1.1" id="Layer_1" xmlns="http://www.w3.org/2000/svg" xmlns:xlink="http://www.w3.org/1999/xlink" x="0px" y="0px"
	 viewBox="0 0 1000 1000" style="enable-background:new 0 0 1000 1000;" xml:space="preserve">
<style type="text/css">
	.st0{fill:#FFE1AD;}
	.st1{fill-rule:evenodd;clip-rule:evenodd;fill:#FF841F;}
</style>
<rect class="st0" width="1000" height="1000"/>
<g>
	<g>
		<path class="st1" d="M568.2,154c0,0-25.8,111.8,38.7,211.9c64.3,100,284.1,297-26.7,480.1c0,0,65.8-93.6,32.6-157.4
			s-104.5-111.4-92.6-211.3c0,0-94,39.1-52.4,216.3c0,0-53-19.3-75.3-71.6c0,0-32.9,102.4,27.4,222.3c0,0-319.3-152.2-61.9-448
			c0,0,5.5,96.6,43.6,123.3C401.7,519.5,338.8,258.2,568.2,154L568.2,154z"/>
	</g>
</g>
</svg>
