<?xml version="1.0" encoding="utf-8"?>
<!-- Generator: Adobe Illustrator 26.3.1, SVG Export Plug-In . SVG Version: 6.00 Build 0)  -->
<svg version="1.1" id="Layer_1" xmlns="http://www.w3.org/2000/svg" xmlns:xlink="http://www.w3.org/1999/xlink" x="0px" y="0px"
	 viewBox="0 0 1000 1000" style="enable-background:new 0 0 1000 1000;" xml:space="preserve">
<style type="text/css">
	.st0{fill:#042433;}
	.st1{fill:#FCFFC2;}
</style>
<rect class="st0" width="1000" height="1000"/>
<g>
	<path class="st1" d="M538.9,144.6C343,144.6,184.3,303.7,184.3,500S343,855.4,538.9,855.4c96.1,0,183.2-38.4,247.2-100.6
		c7.9-7.7,10-19.8,5-29.7c-5-9.8-16-15.4-27-13.5c-15.6,2.7-31.4,4.1-47.8,4.1c-153.7,0-278.5-125-278.5-279.3
		c0-104.4,57.2-195.3,141.7-243.2c9.7-5.6,14.6-16.6,12.2-27.4c-2.4-10.8-11.6-18.9-22.7-19.8C559,145.2,549,144.7,538.9,144.6
		L538.9,144.6z"/>
</g>
</svg>
