<?xml version="1.0" encoding="utf-8"?>
<!-- Generator: Adobe Illustrator 26.3.1, SVG Export Plug-In . SVG Version: 6.00 Build 0)  -->
<svg version="1.1" id="Layer_1" xmlns="http://www.w3.org/2000/svg" xmlns:xlink="http://www.w3.org/1999/xlink" x="0px" y="0px"
	 viewBox="0 0 1000 1000" style="enable-background:new 0 0 1000 1000;" xml:space="preserve">
<style type="text/css">
	.st0{fill:#6DC6F0;}
	.st1{fill:#FFFEC0;}
</style>
<rect class="st0" width="1000" height="1000"/>
<g>
	<g>
		<path class="st1" d="M859.4,485.6l-47.6-25.2c-13.2-7.2-22.8-19.6-26.5-34.2c-1.3-4.7-2.6-9.6-4.1-13.9
			c-4.5-14.9-2.2-30.9,6.3-43.9l26.8-43l0,0c2-3.5,2-7.9,0-11.4c-2.1-3.7-6.1-5.9-10.3-5.7l-57.1,2.1l0,0
			c-14.4,0.2-28.2-5.5-38.2-15.7c-3.3-3.2-6.6-6.4-10-9.5c-11.1-10.6-16.9-25.6-15.9-40.9l1.8-53.3c0.1-4.2-2.1-8.2-5.7-10.3
			c-3.5-2-7.9-2-11.4,0l-49.1,30.9c-12.8,7.9-28.4,10.1-42.9,6h-0.9l0,0c-15-3.6-27.8-13.3-35.3-26.8L513,141.4
			c-1.9-3.8-5.8-6.2-10-6.3c-4.3,0-8.2,2.3-10.2,6.1l-26.1,49.4c-6.8,13.1-18.9,22.7-33.2,26.4l-8.4,2.2l-1.8,0.6l0,0
			c-14.1,3.8-29.1,1.5-41.3-6.4l-49.8-31c-3.6-2.2-8.1-2.3-11.7-0.2s-5.9,6-5.8,10.2l2.1,58.1l0,0c0.3,15.5-6,30.4-17.4,41l-2.7,2.7
			c-10.5,10.7-25,16.6-40.1,16.3l-60.7-2.1l0,0c-4.2-0.1-8.2,2.1-10.3,5.7c-2,3.5-2,7.9,0,11.4l31.2,49.8l0,0
			c8.3,13.6,10.3,30.1,5.6,45.3c-0.1,0.8-0.3,1.6-0.7,2.4c-3.7,14.6-13.3,27-26.5,34.2L141,485.7c-3.7,2-6,5.8-6,10s2.3,8.1,6,10
			l51,26.8c13.9,7.6,23.8,20.7,27.4,36.1l1.6,6.5l0,0c3.4,13.3,1.2,27.5-6.2,39.1L182,666.6c-2,3.5-2,7.9,0,11.4
			c2.1,3.7,6.1,5.9,10.3,5.7l57.9-2.1l0,0c14.5-0.6,28.5,5,38.5,15.5c2.4,2.6,4.9,5.4,7.4,7.8l0,0c9.9,10.3,15.1,24.1,14.5,38.3
			l-2.1,59.2c-0.1,4.2,2.1,8.2,5.7,10.3s8.2,2,11.7-0.2l46.9-29.3c13.1-8,29-9.8,43.5-4.9c5,1.5,10,3,15.2,4.2
			c15.1,3.5,27.9,13.3,35.4,26.9l26.3,49.4c2,3.8,5.9,6.1,10.2,6c4.2,0,8.1-2.3,10-6l25.7-48.5l0,0c7-13.6,19.4-23.6,34.2-27.4
			l13.4-3.7l0,0c14.3-4.1,29.7-1.8,42.2,6.3L674,814l0,0c3.6,2.3,8.1,2.3,11.8,0.2s5.8-6.1,5.7-10.4l-1.9-55.2
			c-0.4-14.6,5.5-28.6,16.1-38.6c3.4-3.3,6.8-6.8,10.2-10.4l0,0c10.8-11.4,26.1-17.6,41.9-16.8l50.2,1.7c4.3,0.4,8.4-1.8,10.3-5.7
			c2-3.5,2-7.9,0-11.4l-28.7-45.7l0,0c-7.8-12.7-9.8-28.1-5.4-42.4c1.4-4.7,2.5-9.5,3.5-14.3l0,0c3.3-14.6,12.6-27,25.7-34.2
			l45.7-24.5c3.7-2,6-5.8,6-10s-2.3-8.1-6-10L859.4,485.6z M503.1,727.5c-60.3,0-118.1-24-160.8-66.6
			c-42.6-42.6-66.6-100.5-66.6-160.8s24-118.1,66.6-160.8c42.6-42.6,100.5-66.6,160.8-66.6s118.1,24,160.8,66.6
			c42.6,42.6,66.6,100.5,66.6,160.8s-24,118.1-66.6,160.8C621.3,703.6,563.4,727.5,503.1,727.5L503.1,727.5z"/>
		<path class="st1" d="M503.1,265c-62.4,0-122.2,24.8-166.3,68.9C292.7,378,268,437.8,268,500.2s24.8,122.2,68.9,166.3
			s103.9,68.9,166.3,68.9s122.2-24.8,166.3-68.9c44.1-44.1,68.9-103.9,68.9-166.3c-0.1-62.4-24.9-122.1-69-166.2
			C625.3,289.9,565.5,265.1,503.1,265L503.1,265z"/>
	</g>
</g>
</svg>
