<?xml version="1.0" encoding="utf-8"?>
<!-- Generator: Adobe Illustrator 26.3.1, SVG Export Plug-In . SVG Version: 6.00 Build 0)  -->
<svg version="1.1" id="Layer_1" xmlns="http://www.w3.org/2000/svg" xmlns:xlink="http://www.w3.org/1999/xlink" x="0px" y="0px"
	 viewBox="0 0 1000 1000" style="enable-background:new 0 0 1000 1000;" xml:space="preserve">
<style type="text/css">
	.st0{fill:#74C272;}
	.st1{fill:#F05A6B;}
	.st2{display:none;fill:#FEE35E;}
</style>
<rect class="st0" width="1000" height="1000"/>
<g>
	<g>
		<path class="st1" d="M825.2,450.3c0-45.2-21.7-87.6-58.5-114c-36.7-26.4-83.9-33.4-126.7-18.9v-8.9
			c-1.4-49.2-28.5-94.1-71.4-118.3s-95.3-24.2-138.1,0c-42.9,24.2-69.9,69.1-71.4,118.3v8.9c-35.8-11.8-74.8-8.7-108.3,8.6
			c-33.5,17.3-58.6,47.3-69.7,83.3s-7.3,75,10.6,108.2s48.4,57.7,84.7,68.1c-20.4,39.9-20.5,87.2-0.3,127.3
			c20.2,40,58.4,68,102.7,75.2s89.3-7.2,121.3-38.7c31.9,31.5,77,45.9,121.3,38.7s82.4-35.2,102.7-75.2c20.2-40,20.1-87.3-0.3-127.3
			c29.3-8.4,55.1-26.2,73.5-50.6C815.4,510.6,825.3,480.8,825.2,450.3L825.2,450.3z"/>
	</g>
</g>
<circle class="st2" cx="500" cy="500" r="88.9"/>
</svg>
