<?xml version="1.0" encoding="utf-8"?>
<!-- Generator: Adobe Illustrator 26.3.1, SVG Export Plug-In . SVG Version: 6.00 Build 0)  -->
<svg version="1.1" id="Layer_1" xmlns="http://www.w3.org/2000/svg" xmlns:xlink="http://www.w3.org/1999/xlink" x="0px" y="0px"
	 viewBox="0 0 1000 1000" style="enable-background:new 0 0 1000 1000;" xml:space="preserve">
<style type="text/css">
	.st0{fill:#FFBF99;stroke:#5FFCFF;stroke-miterlimit:10;}
	.st1{fill:#C05E28;}
</style>
<rect class="st0" width="1000" height="1000"/>
<g>
	<path class="st1" d="M280.3,444.7c27.3-101.4,119-168.7,221.4-172.3c-34.3,37.2-60.2,82.7-74.2,134.6L397,520.4
		c-3.1,11.4,4,23.2,15.7,26.4s23.8-3.5,26.9-14.9l5.6-20.6l25.1-92.9l0,0c5.8-21.4,13.9-41.5,24-60.2c16.9-31.3,39.2-58.6,65.7-81.1
		l0,0c71.7-61,173.1-86.7,273.1-59.7l21.3,5.7c17.7,4.8,28.2,22.4,23.6,39.6c-4.6,17.2-22.6,27.1-40.3,22.3l-21.3-5.7
		c-64.8-17.5-130.4-6.5-182.8,25.1c93.6,52.7,143.9,161.3,115.5,266.7l-0.3,1.3C701.7,742.5,491.1,833.6,277.4,776
		c-56.7-15.3-108-39.5-151.9-70.2c-8.3-5.8-4.4-18.8,5.5-20.9c53.4-11.6,98.2-51,113-106.1L280.3,444.7z"/>
</g>
</svg>
