<?xml version="1.0" encoding="utf-8"?>
<!-- Generator: Adobe Illustrator 26.3.1, SVG Export Plug-In . SVG Version: 6.00 Build 0)  -->
<svg version="1.1" id="Layer_1" xmlns="http://www.w3.org/2000/svg" xmlns:xlink="http://www.w3.org/1999/xlink" x="0px" y="0px"
	 viewBox="0 0 1000 1000" style="enable-background:new 0 0 1000 1000;" xml:space="preserve">
<style type="text/css">
	.st0{fill:#6DC6F0;}
	.st1{fill:#FFCB65;}
</style>
<rect class="st0" width="1000" height="1000"/>
<g>
	<g>
		<path class="st1" d="M866.1,485.3l-48.5-25.7c-13.5-7.3-23.2-20-27-34.9c-1.3-4.8-2.7-9.8-4.1-14.2c-4.6-15.1-2.2-31.5,6.4-44.8
			l27.3-43.8l0,0c2.1-3.6,2.1-8,0-11.7c-2.2-3.7-6.1-6-10.5-5.8l-58.2,2.1l0,0c-14.6,0.3-28.7-5.5-39-16.1
			c-3.4-3.3-6.7-6.5-10.2-9.7c-11.3-10.8-17.2-26-16.2-41.7l1.9-54.3c0.2-4.3-2.1-8.3-5.8-10.5c-3.6-2.1-8-2.1-11.7,0l-50,31.5
			c-13.1,8-29,10.3-43.7,6.1h-1l0,0c-15.3-3.6-28.3-13.6-36-27.3l-26.7-50.4c-2-3.9-5.9-6.3-10.2-6.4c-4.3,0-8.3,2.3-10.4,6.1
			l-26.6,50.3c-6.9,13.4-19.3,23.2-33.9,26.9l-8.6,2.2l-1.9,0.6l0,0c-14.3,3.9-29.6,1.6-42.1-6.5l-50.7-31.6
			c-3.6-2.2-8.2-2.3-11.9-0.3c-3.7,2.1-6,6.1-5.9,10.4l2.1,59.2l0,0c0.3,15.8-6.1,30.9-17.7,41.7l-2.8,2.8
			c-10.7,10.9-25.5,16.9-40.8,16.6l-61.9-2.1l0,0c-4.3-0.2-8.3,2.1-10.5,5.8c-2.1,3.6-2.1,8,0,11.7l31.7,50.7l0,0
			c8.5,13.8,10.5,30.7,5.7,46.2c-0.1,0.9-0.3,1.6-0.7,2.4c-3.7,14.9-13.5,27.5-27,34.9L134,485.4c-3.8,2-6.1,6-6.1,10.2
			c0,4.2,2.3,8.2,6.1,10.2l51.9,27.3c14.1,7.7,24.3,21.1,27.9,36.7l1.6,6.7l0,0c3.5,13.6,1.2,28-6.3,39.8l-33.4,53.4
			c-2.1,3.6-2.1,8,0,11.7c2.2,3.7,6.1,6,10.5,5.8l58.9-2.1l0,0c14.7-0.6,29,5.1,39.2,15.8c2.4,2.7,5,5.4,7.5,8l0,0
			c10,10.5,15.4,24.5,14.8,39.1l-2.1,60.3c-0.2,4.3,2.1,8.3,5.8,10.5c3.7,2.2,8.3,2.1,11.9-0.3l47.8-29.9c13.3-8.1,29.6-9.9,44.3-5
			c5.1,1.5,10.2,3,15.5,4.3c15.4,3.6,28.4,13.6,36,27.4l26.7,50.4c2.1,3.8,6,6.2,10.4,6.1c4.3,0,8.2-2.4,10.2-6.1l26.2-49.4l0,0
			c7.1-13.8,19.8-24,34.9-27.9l13.6-3.7l0,0c14.6-4.2,30.2-1.9,43,6.4l45.9,28.7l0,0c3.6,2.3,8.3,2.3,12,0.2s6-6.2,5.8-10.5l-2-56.3
			c-0.4-14.9,5.5-29.1,16.4-39.3c3.5-3.4,7-7,10.4-10.5l0,0c11.1-11.7,26.6-17.9,42.7-17.1l51.2,1.7c4.3,0.4,8.6-1.9,10.5-5.8
			c2.1-3.6,2.1-8,0-11.7l-29.2-46.5l0,0c-8-12.9-9.9-28.6-5.4-43.1c1.4-4.8,2.6-9.7,3.6-14.5l0,0c3.4-14.9,12.9-27.5,26.2-34.9
			l46.5-25c3.8-2,6.1-6,6.1-10.2c0-4.2-2.3-8.2-6.1-10.2L866.1,485.3z M503.2,731.8c-61.5,0-120.3-24.4-163.8-67.8
			s-67.8-102.3-67.8-163.8s24.4-120.3,67.8-163.8s102.3-67.8,163.8-67.8s120.3,24.4,163.8,67.8s67.8,102.3,67.8,163.8
			s-24.5,120.3-67.8,163.8C623.5,707.3,564.6,731.8,503.2,731.8L503.2,731.8z"/>
		<path class="st1" d="M503.2,260.6c-63.5,0-124.5,25.2-169.4,70.2s-70.2,105.9-70.2,169.4s25.2,124.5,70.2,169.4
			c44.9,44.9,105.9,70.2,169.4,70.2s124.5-25.2,169.4-70.2c44.9-44.9,70.2-105.9,70.2-169.4c-0.1-63.5-25.3-124.5-70.3-169.3
			C627.6,285.9,566.7,260.7,503.2,260.6L503.2,260.6z"/>
	</g>
</g>
</svg>
