<?xml version="1.0" encoding="utf-8"?>
<!-- Generator: Adobe Illustrator 26.3.1, SVG Export Plug-In . SVG Version: 6.00 Build 0)  -->
<svg version="1.1" id="Layer_1" xmlns="http://www.w3.org/2000/svg" xmlns:xlink="http://www.w3.org/1999/xlink" x="0px" y="0px"
	 viewBox="0 0 1000 1000" style="enable-background:new 0 0 1000 1000;" xml:space="preserve">
<style type="text/css">
	.st0{fill:#CCCDCC;}
	.st1{fill-rule:evenodd;clip-rule:evenodd;fill:#910007;}
</style>
<rect class="st0" width="1000" height="1000"/>
<g>
	<g>
		<path class="st1" d="M1002.1,442.7H-1.4"/>
		<path class="st1" d="M1000,2H0l-3.9,659.1c3.7-12.2,6.6-24.6,11.9-36.2c5.2-11.6,13.1-22.5,24.2-28.7c6.8-3.8,14.7-5.7,22.5-5.6
			s15.6,2,22.6,5.5c14,6.9,24.6,19.8,30.4,34.3c5.9,14.5,7.2,30.5,5.7,46.1c-1.5,15.5-5.8,30.7-10.9,45.5
			c-10.2,29.6-23.8,58.6-25.9,89.7c-1.1,15.6,0.9,31.6,7.4,45.8c6.5,14.2,17.8,26.5,32.3,32.5c14,5.8,30.2,5.4,44.4,0
			c14.1-5.4,26.3-15.6,34.9-28c8.7-12.4,14-27,16.6-41.9c2.6-14.9,2.5-30.2,0.9-45.3c-3.2-30.1-12.3-59.3-17.6-89.1
			c-5.3-29.8-6.7-61.5,5-89.5c7-16.7,18.6-31.6,33.3-42c14.8-10.5,32.7-16.5,50.8-16.7c18.2-0.2,36.4,5.6,51.3,16.1
			c14.9,10.5,26.5,25.6,32.8,42.7c6.6,17.7,7.7,36.9,7.7,55.7c0,18.8-0.9,37.8,1.8,56.5c2.7,18.7,9.5,37.4,22.9,50.7
			c6.7,6.6,14.9,11.8,24,14.3c9.1,2.5,19,2.4,27.8-0.9c8.4-3.2,15.6-9.1,20.9-16.4c5.3-7.2,8.8-15.7,11-24.4
			c4.2-17.4,3-35.7,2.7-53.6c-0.3-17.9,0.4-36.5,8-52.8c3.8-8.1,9.3-15.5,16.5-20.9c7.2-5.3,16.2-8.5,25.1-8.2
			c8.7,0.3,17.1,3.9,24.3,8.9c7.2,5,13.3,11.4,19.1,17.9c5.9,6.5,11.6,13.2,18.1,19c6.6,5.8,14.1,10.7,22.6,12.9
			c8.9,2.4,18.4,1.7,27.2-1.1c8.7-2.9,16.7-7.8,23.6-13.9c13.9-12.1,23.5-28.2,33.3-43.7c9.7-15.3,20.1-30.4,34.1-41.9
			c7-5.8,14.8-10.5,23.4-13.6c8.5-3,17.7-4.3,26.7-3.2c14.4,1.8,27.7,10,36.9,21.1c9.3,11.2,14.8,25.2,17.1,39.5
			c4.6,28.7-3.3,57.7-11.1,85.7c-7.9,28-15.9,56.9-11.7,85.7c2.1,14.4,7.4,28.5,16.5,39.8c9.1,11.3,22.1,19.7,36.5,22
			c11.6,1.8,23.7-0.4,34.2-5.7c10.4-5.3,19.1-13.6,26.6-22.6c7.6-9.2,14.2-19.4,18.4-30.6c4.3-11.2,6.2-23.3,4.5-35.2
			c-2.6-18.5-13.5-34.7-25.4-49s-25.3-27.7-34.5-43.9c-4.6-8.1-8.1-16.9-9.5-26.1c-1.4-9.2-0.6-18.9,3.1-27.4
			c3.7-8.6,10.2-16,18.7-19.9c4.2-2,8.9-3,13.5-3c4.7,0,9.3,1.1,13.4,3.3c3.5,1.9,6.6,4.4,9.9,6.6c3.3,2.2,7.1,3.9,11.1,3.9
			c3.8-0.1,7.3-1.8,10.1-4.3s4.8-5.8,6.4-9.1c3.2-6.8,4.7-14.4,8.8-20.6c2.8-4.2,6.7-7.7,11.2-10.1c4.5-2.4,0.3-1.8,5.3-2.4V2z"/>
	</g>
</g>
</svg>
