<?xml version="1.0" encoding="utf-8"?>
<!-- Generator: Adobe Illustrator 26.3.1, SVG Export Plug-In . SVG Version: 6.00 Build 0)  -->
<svg version="1.1" id="Layer_1" xmlns="http://www.w3.org/2000/svg" xmlns:xlink="http://www.w3.org/1999/xlink" x="0px" y="0px"
	 viewBox="0 0 1000 1000" style="enable-background:new 0 0 1000 1000;" xml:space="preserve">
<style type="text/css">
	.st0{fill:#CCCDCC;}
	.st1{stroke:#000000;stroke-width:10;stroke-miterlimit:10;}
</style>
<rect class="st0" width="1000" height="1000"/>
<g>
	<g>
		<path class="st1" d="M785,536.8c-20.8,11-43,21.6-64.1,35.2c-7.5,5.8-13.2,13.1-16.6,21.2c-6.6,13.1-11.7,27-17.4,40.3
			c-2.9,6.8-7.3,13-12.8,18.5c-4.5,3.3-10.5,4.4-15.9,3.1c-3.8-3.3-5.4-8-4.3-12.7c10.4-24.3,20.8-48.7,33.6-72.1
			c6.1-9.2,14.7-17.1,25.1-22.8c18.5-11.3,38.3-20.8,57-30.8l0,0c0.6-2,0.7-4,0.4-6c-17.8-38.2-14.7-51.3,22.1-78.9
			c24.1-18.3,50.4-34.4,74.4-52.8c26.4-19.9,27.1-25.7,5.6-48.1l0,0c-11.6-12-18.9-26.9-21-42.7c-2.4-18-7.7-35.7-12.2-55.8
			l-65.2,15.5l-47.5,10.9c-14.6,4.5-30.2,5.5-45,2.8c-14.9-2.7-28.5-9-39.3-18.1c-4.5-4.6-11-7.4-18.1-7.8
			c-7.1-0.4-14.1,1.8-19.6,5.9c-30.5,16.5-61.9,31.7-96.3,49.2l24.3,29.7c30.8,38.1,29.1,51.5-11.2,83.9
			c-21.9,17.7-43.7,35.8-66.5,52.8c-20.1,14.7-31.7,36.3-31.6,58.8c-1,22.1-1.7,44-2.7,67.8c28.5,2.7,57.3,5.6,85.9,8.2
			c45.6,4.7,50.3,13.8,27.7,49.5l0,0c-10.5,16.5-20,33.5-28.5,50.8c-6.3,15.1-5.2,31.6,3,45.5c4.1,10.7,11.9,19.9,22.5,26.3
			c10.6,6.4,23.3,9.6,36.4,9.2c3-0.4,6,1.1,8.9,1.3c57.8,5.7,57.8,5.7,66.6,53.2c1.8,12.4,10.1,23.2,22.4,29.3
			c23.7,12.9,44.6,29.3,62,48.4c15.5,13.3,31.9,25.8,49.1,37.5c11.1,8.6,21.2,18.2,30.1,28.6c2.7,3.1-1.5,10.7-2.6,16.2
			c-5.6-0.7-12.8,0.1-15.7-2.7c-31.5-25.2-62-51.2-93.3-76.5l0,0c-12.9-10.7-26.9-20.3-41.8-28.9c-22.2-10.8-36.3-30.9-37.7-53.3
			c-1.9-24.1-3.2-23.9-30.1-27.6c-23.7-3.3-46.8-7-70.2-10.4L350.8,888l25.5,21.3c16.7,12.7,28.5,29.7,33.6,48.7
			c1.4,6.8,1.1,13.8-0.8,20.6c-0.8,2.9-7.1,6.1-11.5,6.9c-4.3,0.7-8.9-2.8-9.2-4.9c-3.5-33.9-31-53.2-55.9-74.6
			c-5.1-4.4-7.9-10.5-7.5-16.9c0.4-6.4,3.9-12.4,9.5-16.6c8.3-8,17.6-15,27.8-21c31.4-18.8,63.4-37,95-55.7l0,0
			c8.5-5,16.5-10.5,24.1-16.5c5.6-3.4,9.4-8.7,10.3-14.6c1-5.8-0.9-11.7-5.3-16c-7.7-9.8-12.1-21.4-12.7-33.5
			c-0.6-12.1,2.6-24.2,9.3-35.1c9.9-20.5,22.1-40.2,35.1-63.5c-21.3-2.3-40.7-4.9-60.4-6.8c-11-1.1-22.3-0.6-33.2-1.4
			c-26.5-1.6-33-8.9-30.7-32.1c3.1-35.3,6.6-70.3,10.2-107.8c-14.1-0.4-29-1.6-43.7-0.8l0,0c-10.1,0.9-20.3-0.7-29.2-4.6
			c-9-3.9-16.4-9.9-21.6-17.5c-33.2-42.8-19.9-34.1-77.8-28.7l0,0c-11.1,1.4-22.2,1.9-33.3,1.3c-7.8-1.1-15-4-20.9-8.5
			c-2.7-3.4-3.3-7.9-1.6-11.9c1.7-3,9-6.9,11.9-6c26.3,8,52.3,0.4,78.2-2.9l0,0c8.5-1.5,17.3-0.9,25.2,1.9
			c7.9,2.8,14.7,7.6,19.4,13.8c2.6,2.6,4.9,5.5,6.8,8.5c5.2,12,15.4,21.7,28.5,27.3c13.1,5.6,28.3,6.7,42.7,3.1
			c13.4-0.4,26.8,0.9,39.7,3.9c27.6-21.9,56.3-44,84.1-66.9c18.4-15.8,19-20.2,5-38.9c-11-14.5-25.1-27.4-34.6-42.6l0,0
			c-14.5-21.7-26.6-44.6-36.1-68.5c-10.2-28.2-5.5-33.9,23.8-50.7c18.7-10.9,37.3-22,58.2-34.4c-9.4-16.7-18.5-32-26.7-47.6
			c-8.2-15.7-15.2-29.9-23.3-45.7c-68,15.1-130.8,50.4-204.5,28.1c-20.2,29.3-46,55-37,91l0,0c3.2,9.7-1.7,20.3-11.9,25.5
			c-11,6.6-22.5,12.6-34.3,17.9c-26.9,11.3-51.4,26.7-72.3,45.5c-8.8,6.8-18.2,13-28.1,18.5c-13.8-11.5-5.4-19.6,1.8-26.8
			c21.3-21.5,47.1-39.3,75.8-52.5c13.6-6.1,26.5-13,40.6-19.9c-11.2-40.4,17.9-70.9,33.4-105.3l0,0c-7.4-3.1-15-5.9-22.8-8.2
			c-20.4-5-26.2-1.5-40.3,15.1l0,0c-15.9,18.8-32.9,36.8-50.9,54.1c-7.7,7.3-19.9,19-30.9,9.1c-11-10,5.1-17.6,12.6-25.4l0,0
			c16.5-16.2,32-33.2,46.4-50.8c21.6-27.9,38.3-34,74.8-24.8c27.3,8.2,55.5,14.3,84.2,18.2c22,1,44.2-1.4,65.6-7.1
			c26.7-5.8,52.3-15.5,78.7-22.8c29.5-8.3,36.6-4.9,48.5,19.5s26.1,50.8,41.1,78.2l0,0c7.5-3.7,14.6-7.9,21.4-12.6
			c33.4-26.8,66.8-53.8,99.5-81.1c7.1-6,14.4-13.2,22.5-5.7c3.2,5.9,2.7,12.9-1.3,18.7c-10.4,12.3-22.2,23.7-35.2,34
			c-51.5,42-107,80.1-165.9,113.6c-23.8,13.7-24.1,14-15.8,36.2c4.8,12.7,11,23.5,17.9,37.5c24.7-11.8,46.1-22.1,67.3-32.6
			c11.6-5.7,23-11.9,34.6-17.9c31.9-16,38.1-16.6,64.8,3.6l0,0c8.9,7,19.9,11.8,31.8,13.8c11.9,2,24.3,1.2,36-2.4
			c30.5-7.4,60.9-15.5,91.5-22.2c33.2-7.5,44-1.6,51.9,27l0,0c2.6,8.5,4.4,17.1,5.5,25.9c1.6,22.1,11.1,42.9,27.1,59.6
			c20.6,21.7,18,40.4-7.1,61.2c-21.6,17.9-45.6,33.7-69.7,50.1c-48,35.2-49,41.3-15.8,85.1c8.3,10.9,16.8,21.6,24.6,32.8l0,0
			c10.1,14.2,14.1,31.2,11.3,48.1c-1.9,13.6-1.1,26.8-1.8,40.2l0,0c0.5,4.5,0.1,9.1-1.3,13.5c-2.9,4.3-6.4,8.3-10.5,11.9
			c-4.9-3.5-13.4-6.6-13.8-10.7l0,0c-1.8-15.8-2-31.7-0.7-47.7C820.8,575.6,815.3,562.9,785,536.8L785,536.8z"/>
	</g>
</g>
</svg>
