<?xml version="1.0" encoding="utf-8"?>
<!-- Generator: Adobe Illustrator 26.3.1, SVG Export Plug-In . SVG Version: 6.00 Build 0)  -->
<svg version="1.1" id="Layer_1" xmlns="http://www.w3.org/2000/svg" xmlns:xlink="http://www.w3.org/1999/xlink" x="0px" y="0px"
	 viewBox="0 0 1000 1000" style="enable-background:new 0 0 1000 1000;" xml:space="preserve">
<style type="text/css">
	.st0{fill:#CCCDCC;}
</style>
<rect class="st0" width="1000" height="1000"/>
<g>
	<g>
		<path d="M794.6,443.8c-12.2-2.9-26.2-1.6-39.2,3.8c-13.1,5.4-24,14.3-30.6,25.1c-7.1,11.5-8.6,24.4-4,35.4s14.7,19,27.9,22.2
			c4.2,1.1,8.7,1.6,13.2,1.6c8.6,0,17.5-1.8,26.1-5.3c28.5-11.8,43.7-38.4,34.6-60.5C818.1,455.1,807.8,447,794.6,443.8L794.6,443.8
			z"/>
		<path d="M514.7,731.9c-12.3-3-26.2-1.6-39.3,3.8c-13.1,5.4-23.9,14.3-30.5,25c-7.2,11.6-8.7,24.5-4.1,35.5
			c6.3,15.2,22.3,23.8,41,23.8c8.4,0,17.3-1.7,26.2-5.4c28.6-11.7,43.8-38.3,34.6-60.5C538.1,743.1,527.9,735,514.7,731.9
			L514.7,731.9z"/>
		<path d="M248.2,327.2c8,0,15.6-2,22.5-5.9c26.3-15.2,31.5-55.6,11.6-90c-19.9-34.5-57.6-50.2-83.8-35c-15.6,9-23.8,26.7-23.8,46.8
			c0,14,3.9,29.2,12.1,43.3c9.4,16.2,22.9,28.8,38,35.6C232.7,325.4,240.6,327.2,248.2,327.2L248.2,327.2z"/>
		<path d="M681.5,712.7c-5.9,10.3-6.1,23.3-0.6,35.7c5.1,11.5,14.7,21.8,27,28.9c10.8,6.3,22.3,9.4,32.9,9.4
			c15.5,0,29-6.5,36.1-18.8c12-20.7,0.4-49.1-26.3-64.5C723.8,687.8,693.5,692,681.5,712.7L681.5,712.7z"/>
		<path d="M707.7,244.7c-9.5-7.1-22.4-8.8-35.4-4.6c-12,3.8-23.3,12.2-31.6,23.6c-8.4,11.4-13.1,24.6-13.2,37.3
			c-0.1,13.6,5.3,25.4,14.9,32.4c6.1,4.5,13.6,6.8,21.6,6.8c4.4,0,9.1-0.7,13.8-2.2c12-3.8,23.3-12.2,31.6-23.7
			c8.4-11.3,13.1-24.5,13.2-37.2C722.7,263.5,717.3,251.7,707.7,244.7L707.7,244.7z"/>
		<path d="M251.5,506l29.4,16.3c9,4.9,17.8,10.4,19.8,17.7c2,7.8-3.6,16.9-9.7,26.3c-1.3,2.1-2.6,4-3.7,6
			c-24.1,40.3-18.5,94.7,13,126.6c17.5,17.6,41.8,26.5,65.7,26.5c22.1,0,44-7.6,59.8-23.1c9.6-9.3,16.8-20.6,23.8-31.4
			c10.4-16.4,20.2-31.7,35.9-37c17.4-5.7,37.2,3.3,50.6,11.9c5.4,3.5,10.7,7.3,16,11c11.8,8.6,24.1,17.4,38.5,23
			c32.6,12.8,80.1,8.5,104-24.5c9.4-13,5.2-34.4-1.9-44.1c-6.6-9.1-16.8-16.3-26.4-23.3c-9.7-6.8-19.6-13.9-24-21.6
			c-9.8-16.8-19.1-36.2-14.5-53.6c1.7-6.3,5.2-12.3,9-18.7l1.2-2c2.4-4.1,7.2-9.8,12.2-15.6c10.6-12.2,21.6-24.8,23.1-37.6
			c2.6-20.4-4.3-40-17.8-51.2c-14.9-12.3-33.1-12.9-50.8-13.5c-10.8-0.4-21.2-0.7-30.2-3.7c-3.3-1.1-3.9-1.9-4-2.1
			c-0.2-0.2-0.5-1-0.8-3.8c-0.9-9.8,1.2-19.9,5.6-28.7c1.3-2.5,2.7-5,4-7.6c7.7-14,16.4-29.9,11.6-45.1c-2.7-8.7-9.2-15.7-19.4-20.8
			c-9.4-4.8-26.2-13.4-44.1-13.4c-12.7,0-26,4.3-37.6,17.4c-11.4,13-17.9,31.4-18.7,53.5l-0.1,3.7c-0.2,7.7-0.4,14.9-3.7,19.4
			c-5.6,7.7-20.1,6.9-31.2,4.8c-11.4-2.1-22.8-4.8-34.1-8.2c-4.8-1.5-10.8-3.3-17.4-2.2c-4.7,0.8-9.4,3-13.7,6.5
			c-14.8,12-19.4,34.1-10.5,50.3c3.3,6,8.1,10.5,12.2,14.6l2.1,2.2c7.8,7.8,16.8,19.5,15.1,31.1c-1,7-5.7,11.6-9.5,14.3
			c-8.3,5.8-20.2,8.1-30.6,5.9c-15.7-3.3-29.5-13.1-44-23.4c-3.3-2.5-6.7-4.8-10.2-7.2c-11.5-7.9-25.5-16.1-41.7-17.4
			c-19.2-1.6-37.2,8.1-43.7,23.6c-5.8,13.6-2.3,31,8.9,44.3C228.3,493.3,240.6,500.1,251.5,506L251.5,506z"/>
		<path d="M405.5,287.7c3.9,0,7.9-0.7,11.7-2.1c11.1-3.9,19.7-13.7,23.6-26.7c3.5-12.1,2.9-26.1-1.9-39.4
			c-4.7-13.4-13.1-24.6-23.5-31.7c-11.2-7.7-24-9.9-35.3-5.8c-11.1,3.9-19.7,13.7-23.6,26.7c-3.5,12.1-2.9,26.1,1.9,39.4
			C367.1,272.3,386.3,287.7,405.5,287.7L405.5,287.7z"/>
	</g>
</g>
</svg>
