<?xml version="1.0" encoding="utf-8"?>
<!-- Generator: Adobe Illustrator 26.3.1, SVG Export Plug-In . SVG Version: 6.00 Build 0)  -->
<svg version="1.1" id="Layer_1" xmlns="http://www.w3.org/2000/svg" xmlns:xlink="http://www.w3.org/1999/xlink" x="0px" y="0px"
	 viewBox="0 0 1000 1000" style="enable-background:new 0 0 1000 1000;" xml:space="preserve">
<style type="text/css">
	.st0{fill:#65CADE;}
	.st1{fill:#DDF1F3;}
</style>
<rect class="st0" width="1000" height="1000"/>
<g>
	<path class="st1" d="M500.1,156.1c23.8,0,43,19.2,43,43v40.4l20.2-20.2c12.6-12.6,33-12.6,45.5,0c12.5,12.6,12.6,33,0,45.5
		l-65.8,65.8v94.4l82.5-48.1l23.8-88.8c4.6-17.2,22.3-27.4,39.5-22.8s27.4,22.3,22.8,39.5l-7,25.9l31.7-18.5
		c20.6-12,46.9-5,58.8,15.4c12,20.4,5.1,46.9-15.4,58.8l-34,19.9l29.2,7.8c17.2,4.6,27.4,22.3,22.8,39.5s-22.3,27.4-39.5,22.8
		l-90.9-24.3L585.4,500l81.8,47.7l90.9-24.3c17.2-4.6,34.9,5.6,39.5,22.8c4.6,17.2-5.6,34.9-22.8,39.5l-29.2,7.8l34,19.9
		c20.6,12,27.4,38.3,15.4,58.8s-38.3,27.4-58.8,15.4l-31.7-18.5l7,25.9c4.6,17.2-5.6,34.9-22.8,39.5c-17.2,4.6-34.9-5.6-39.5-22.8
		l-23.8-88.8L543,574.8v94.4l65.8,65.8c12.6,12.6,12.6,33,0,45.5c-12.6,12.5-33,12.6-45.5,0l-20.2-20.2v40.4c0,23.8-19.2,43-43,43
		s-43-19.2-43-43v-40.4L437,780.6c-12.6,12.6-33,12.6-45.5,0s-12.6-33,0-45.5l65.8-65.8v-94.4l-82.5,48.1l-23.8,88.8
		c-4.6,17.2-22.3,27.4-39.5,22.8c-17.2-4.6-27.4-22.3-22.8-39.5l7-25.9l-32,18.4c-20.6,12-46.9,5-58.8-15.4
		c-12-20.4-5-46.9,15.4-58.8l34-19.9l-29.2-7.8c-17.2-4.6-27.4-22.3-22.8-39.5c4.6-17.2,22.3-27.4,39.5-22.8l90.9,24.3l81.9-47.6
		l-81.8-47.7L242,476.6c-17.2,4.6-34.9-5.6-39.5-22.8c-4.6-17.2,5.6-34.9,22.8-39.5l29.2-7.8l-34-19.9c-20.6-12-27.4-38.3-15.4-58.7
		c12-20.4,38.3-27.4,58.8-15.4l31.7,18.5l-7-25.9c-4.6-17.2,5.6-34.9,22.8-39.5c17.2-4.6,34.9,5.6,39.5,22.8l23.8,88.8l82.3,48
		v-94.6l-65.8-65.7c-12.6-12.6-12.6-33,0-45.5c12.6-12.5,33-12.6,45.5,0l20.2,20.2v-40.4c0-23.8,19.2-43,43-43H500.1z"/>
</g>
</svg>
