<?xml version="1.0" encoding="utf-8"?>
<!-- Generator: Adobe Illustrator 26.3.1, SVG Export Plug-In . SVG Version: 6.00 Build 0)  -->
<svg version="1.1" id="Layer_1" xmlns="http://www.w3.org/2000/svg" xmlns:xlink="http://www.w3.org/1999/xlink" x="0px" y="0px"
	 viewBox="0 0 1000 1000" style="enable-background:new 0 0 1000 1000;" xml:space="preserve">
<style type="text/css">
	.st0{fill:#042433;}
	.st1{fill:#8FCC69;}
</style>
<rect class="st0" width="1000" height="1000"/>
<g>
	<g>
		<path class="st1" d="M731.7,230.7c-71.2,46.8-163.3,46.3-234.4-0.5c-3.5-2.4-7.8-1.9-11.2,1.5c-3,3-3.5,7.3-1.5,11.2
			c46.8,71.2,46.8,163.8,0.5,234.4c-2.4,3.5-1.9,7.8,1.5,11.2c3,3,7.3,3.5,11.2,1.5c71.2-46.8,163.3-46.3,233.9,0
			c3.5,2.4,7.8,1.9,11.2-1.5c3-3,3.5-7.3,1.5-11.2c-46.8-71.2-46.3-163.3,0-233.9c2.4-3.5,1.9-7.8-1.5-11.2
			C739.5,228.7,735.1,228.2,731.7,230.7z"/>
		<path class="st1" d="M672.8,564.5c-57,37.5-131.1,37.5-188.6-0.4c-3-1.9-6.4-1.5-8.8,1c-2.4,2.4-2.9,5.8-1,8.8
			c38,57.5,37.9,131.6,0.4,188.6c-1.9,3-1.5,6.4,1,8.8c2.4,2.4,5.8,2.9,8.8,1c57-37.5,131.1-37.5,188.1,0c3,1.9,6.4,1.5,8.8-1
			c2.4-2.4,2.9-5.8,1-8.8c-37.5-57-37.5-131.1,0-188.1c1.9-3,1.5-6.4-1-8.8C679.1,563.1,675.7,562.5,672.8,564.5L672.8,564.5z"/>
		<path class="st1" d="M393,620.9c3.9,2,8.3,1.5,11.2-1.5c3-3,3.9-7.7,1.5-11.2c-33.1-53.6-32.6-123.3,0-176.5
			c2-3.9,1.5-8.3-1.5-11.2c-3-3-7.7-3.9-11.2-1.5c-54.6,33.3-122.8,33.3-176.9-0.3c-3.4-2.5-8.3-1.5-11.2,1.5c-3,3-3.9,7.7-1.5,11.2
			c33.2,54.6,33.7,122.3,0.5,176.8c-2,3.9-1.5,8.3,1.5,11.2c3,3,7.7,3.9,11.2,1.5C269.7,588.3,338.9,588.4,393,620.9z"/>
	</g>
</g>
</svg>
