<svg xmlns="http://www.w3.org/2000/svg" viewBox="0 0 512 512" style="height: 512px; width: 512px;"><defs><filter id="shadow-1" height="300%" width="300%" x="-100%" y="-100%"><feFlood flood-color="rgba(12, 12, 50, 1)" result="flood"></feFlood><feComposite in="flood" in2="SourceGraphic" operator="atop" result="composite"></feComposite><feGaussianBlur in="composite" stdDeviation="20" result="blur"></feGaussianBlur><feOffset dx="0" dy="0" result="offset"></feOffset><feComposite in="SourceGraphic" in2="offset" operator="over"></feComposite></filter></defs><g class="" transform="translate(0,0)" style=""><path d="M382.313 17.156L347 80.594H58.937l13.657 15.53 172.03 195.5v155.063l-118.343 35.438v13.22h255.376v-13.22l-118.344-35.438V291.595l172-195.47 13.657-15.53h-80.595l30.28-54.344-16.342-9.094zM100.25 99.28h236.344l-12.25 21.97c-5.352-2.042-11.14-3.188-17.188-3.188-17.4 0-32.74 9.283-41.344 23.126H137.125L100.25 99.28zm257.72 0h49.686l-36.875 41.907h-22.31c-2.3-3.7-5.08-7.073-8.25-10.03l17.75-31.876zm-50.814 37.47c16.652 0 29.938 13.33 29.938 30s-13.286 29.97-29.938 29.97-29.97-13.3-29.97-29.97c.002-1.01.062-2.017.158-3 2.26 3.716 6.303 6.22 10.97 6.22 7.112 0 12.905-5.79 12.905-12.907 0-7.118-5.794-12.875-12.908-12.875-.35 0-.688.035-1.03.062 5.276-4.67 12.213-7.5 19.874-7.5z" fill="#ffffff" fill-opacity="1" transform="translate(25.6, 25.6) scale(0.9, 0.9) rotate(0, 256, 256) skewX(0) skewY(0)" filter="url(#shadow-1)"></path></g></svg>