<svg xmlns="http://www.w3.org/2000/svg" viewBox="0 0 512 512" style="height: 512px; width: 512px;"><defs><filter id="shadow-1" height="300%" width="300%" x="-100%" y="-100%"><feFlood flood-color="rgba(12, 12, 50, 1)" result="flood"></feFlood><feComposite in="flood" in2="SourceGraphic" operator="atop" result="composite"></feComposite><feGaussianBlur in="composite" stdDeviation="20" result="blur"></feGaussianBlur><feOffset dx="0" dy="0" result="offset"></feOffset><feComposite in="SourceGraphic" in2="offset" operator="over"></feComposite></filter></defs><g class="" transform="translate(0,0)" style=""><path d="M307.723 39.623c-25.627-.292-48.63 17.365-54.246 43.44-6.418 29.8 12.39 58.93 42.19 65.347 29.798 6.417 58.927-12.39 65.345-42.19 6.417-29.798-12.39-58.928-42.188-65.345-3.725-.802-7.44-1.21-11.1-1.252zm-37.543 117.88L237.123 311h47.055l30.97-143.81c-7.584.836-15.418.507-23.27-1.184-7.854-1.69-15.13-4.617-21.698-8.502zM198.486 329l-10 30h135.028l-10-30H198.486zM73 377v30h30v-30H73zm93.486 0l-10 30h199.028l-10-30H166.486zM409 377v30h30v-30h-30zM57 425v62h398v-62H57z" fill="#ffffff" fill-opacity="1" transform="translate(25.6, 25.6) scale(0.9, 0.9) rotate(0, 256, 256) skewX(0) skewY(0)" filter="url(#shadow-1)"></path></g></svg>