<svg xmlns="http://www.w3.org/2000/svg" viewBox="0 0 512 512" style="height: 512px; width: 512px;"><defs><filter id="shadow-1" height="300%" width="300%" x="-100%" y="-100%"><feFlood flood-color="rgba(12, 12, 50, 1)" result="flood"></feFlood><feComposite in="flood" in2="SourceGraphic" operator="atop" result="composite"></feComposite><feGaussianBlur in="composite" stdDeviation="20" result="blur"></feGaussianBlur><feOffset dx="0" dy="0" result="offset"></feOffset><feComposite in="SourceGraphic" in2="offset" operator="over"></feComposite></filter></defs><g class="" transform="translate(0,0)" style=""><path d="M256 25C128.3 25 25 128.3 25 256s103.3 231 231 231 231-103.3 231-231S383.7 25 256 25zm0 30c110.9 0 201 90.1 201 201s-90.1 201-201 201S55 366.9 55 256 145.1 55 256 55zM80.52 203.9c-4.71 19.2-7.52 37-7.52 54 144.7 30.3 121.5 62.4 148 177.8 11.4 2.1 23 3.3 35 3.3s23.6-1.2 35-3.3c26.5-115.4 3.3-147.5 148-177.8-.6-18.9-3-38.4-7.5-54C346.7 182.7 301.1 172 256 172c-45.1 0-90.7 10.7-175.48 31.9zM256 183c40.2 0 73 32.8 73 73s-32.8 73-73 73-73-32.8-73-73 32.8-73 73-73zm0 18c-30.5 0-55 24.5-55 55s24.5 55 55 55 55-24.5 55-55-24.5-55-55-55z" fill="#ffffff" fill-opacity="1" transform="translate(25.6, 25.6) scale(0.9, 0.9) rotate(0, 256, 256) skewX(0) skewY(0)" filter="url(#shadow-1)"></path></g></svg>