<?xml version="1.0" encoding="UTF-8" standalone="no"?>
<svg
   xmlns:dc="http://purl.org/dc/elements/1.1/"
   xmlns:cc="http://creativecommons.org/ns#"
   xmlns:rdf="http://www.w3.org/1999/02/22-rdf-syntax-ns#"
   xmlns:svg="http://www.w3.org/2000/svg"
   xmlns="http://www.w3.org/2000/svg"
   xmlns:sodipodi="http://sodipodi.sourceforge.net/DTD/sodipodi-0.dtd"
   xmlns:inkscape="http://www.inkscape.org/namespaces/inkscape"
   viewBox="0 0 512 512"
   version="1.1"
   id="svg4"
   sodipodi:docname="acid-tube2.svg"
   inkscape:version="1.0.1 (3bc2e813f5, 2020-09-07)">
  <metadata
     id="metadata10">
    <rdf:RDF>
      <cc:Work
         rdf:about="">
        <dc:format>image/svg+xml</dc:format>
        <dc:type
           rdf:resource="http://purl.org/dc/dcmitype/StillImage" />
        <dc:title></dc:title>
      </cc:Work>
    </rdf:RDF>
  </metadata>
  <defs
     id="defs8">
    <filter
       style="color-interpolation-filters:sRGB;"
       inkscape:label="Invert"
       id="filter16">
      <feColorMatrix
         type="hueRotate"
         values="180"
         result="color1"
         id="feColorMatrix12" />
      <feColorMatrix
         values="-1 0 0 0 1 0 -1 0 0 1 0 0 -1 0 1 -0.21 -0.72 -0.07 2 0 "
         result="color2"
         id="feColorMatrix14" />
    </filter>
  </defs>
  <sodipodi:namedview
     pagecolor="#ffffff"
     bordercolor="#666666"
     borderopacity="1"
     objecttolerance="10"
     gridtolerance="10"
     guidetolerance="10"
     inkscape:pageopacity="0"
     inkscape:pageshadow="2"
     inkscape:window-width="1920"
     inkscape:window-height="1027"
     id="namedview6"
     showgrid="false"
     inkscape:zoom="1.6796875"
     inkscape:cx="256"
     inkscape:cy="256"
     inkscape:window-x="-8"
     inkscape:window-y="-8"
     inkscape:window-maximized="1"
     inkscape:current-layer="svg4" />
  <path
     d="M256.938 48A32 32 0 0 0 224 80a32 32 0 0 0 64 0 32 32 0 0 0-31.063-32zm-208 112A32 32 0 0 0 16 192a32 32 0 0 0 64 0 32 32 0 0 0-31.063-32zm207.53 0A16 16 0 0 0 240 176a16 16 0 0 0 32 0 16 16 0 0 0-15.53-16zm208.47 0A32 32 0 0 0 432 192a32 32 0 0 0 64 0 32 32 0 0 0-31.063-32zM192 208c-48 0-16 32 0 48 0 11.41-.386 21.89-1 32 19.59-9.974 41.51-16 65-16 23.49 0 45.41 6.026 65 16-.614-10.11-1-20.59-1-32 16-16 48-48 0-48-16 0-32 16-64 16s-48-16-64-16zm-66 31c-5.066.26-10.97 5.32-18 17.5-8 13.856-2.5 35.786-18.5 63.5S52 353.642 44 367.5c-24 41.57 19.642 29.856 41.5 24 9.648 5.57 18.66 11.062 27 16.5 2.637-47.1 27.794-88.193 65-112.5-8.915-4.568-18.138-9.306-28-15-4.027-15.026-10.87-40.626-22.5-41.5-.33-.025-.662-.017-1 0zm259 0c-11.632.872-18.474 26.473-22.5 41.5-9.862 5.694-19.085 10.432-28 15 37.206 24.307 62.363 65.4 65 112.5 8.34-5.438 17.352-10.93 27-16.5 21.856 5.856 65.5 17.57 41.5-24-8-13.856-29.5-19.786-45.5-47.5S412 270.358 404 256.5c-7.5-12.99-13.714-17.895-19-17.5zM48.47 256A16 16 0 0 0 32 272a16 16 0 0 0 32 0 16 16 0 0 0-15.53-16zm416 0A16 16 0 0 0 448 272a16 16 0 0 0 32 0 16 16 0 0 0-15.53-16zM256 304c-64 0-112 48-112 112v48h224v-48c0-64-48-112-112-112z"
     id="path2"
     style="filter:url(#filter16)" />
</svg>
