<?xml version="1.0" encoding="UTF-8" standalone="no"?>
<svg
   xmlns:dc="http://purl.org/dc/elements/1.1/"
   xmlns:cc="http://creativecommons.org/ns#"
   xmlns:rdf="http://www.w3.org/1999/02/22-rdf-syntax-ns#"
   xmlns:svg="http://www.w3.org/2000/svg"
   xmlns="http://www.w3.org/2000/svg"
   xmlns:sodipodi="http://sodipodi.sourceforge.net/DTD/sodipodi-0.dtd"
   xmlns:inkscape="http://www.inkscape.org/namespaces/inkscape"
   viewBox="0 0 512 512"
   version="1.1"
   id="svg4"
   sodipodi:docname="beer-bottle2.svg"
   inkscape:version="1.0.1 (3bc2e813f5, 2020-09-07)">
  <metadata
     id="metadata10">
    <rdf:RDF>
      <cc:Work
         rdf:about="">
        <dc:format>image/svg+xml</dc:format>
        <dc:type
           rdf:resource="http://purl.org/dc/dcmitype/StillImage" />
        <dc:title></dc:title>
      </cc:Work>
    </rdf:RDF>
  </metadata>
  <defs
     id="defs8">
    <filter
       style="color-interpolation-filters:sRGB;"
       inkscape:label="Invert"
       id="filter839">
      <feColorMatrix
         type="hueRotate"
         values="180"
         result="color1"
         id="feColorMatrix835" />
      <feColorMatrix
         values="-1 0 0 0 1 0 -1 0 0 1 0 0 -1 0 1 -0.21 -0.72 -0.07 2 0 "
         result="color2"
         id="feColorMatrix837" />
    </filter>
  </defs>
  <sodipodi:namedview
     pagecolor="#ffffff"
     bordercolor="#666666"
     borderopacity="1"
     objecttolerance="10"
     gridtolerance="10"
     guidetolerance="10"
     inkscape:pageopacity="0"
     inkscape:pageshadow="2"
     inkscape:window-width="1920"
     inkscape:window-height="1027"
     id="namedview6"
     showgrid="false"
     inkscape:zoom="1.6796875"
     inkscape:cx="256"
     inkscape:cy="256"
     inkscape:window-x="-8"
     inkscape:window-y="-8"
     inkscape:window-maximized="1"
     inkscape:current-layer="svg4" />
  <path
     d="M200 23v18h21.895l-14.31 123.303c-14.473 8.144-25.962 16.414-34.18 25.265-9.02 9.712-14.405 20.57-14.405 31.97V445.54c0 11.4 5.042 21.877 12.348 29.794 7.305 7.917 17.208 13.666 28.35 13.666H312c11.23 0 21.24-5.72 28.596-13.645C347.953 467.432 353 456.94 353 445.54v-224c0-11.402-5.386-22.26-14.404-31.972-8.22-8.85-19.708-17.12-34.18-25.265L290.106 41H312V23H200zm40.016 18h31.968l8.094 69.727c-2.328-.97-4.98-1.573-8.078-1.573-10.342 0-17.062 6.425-22.15 10.772-5.09 4.346-5.982 7.135-9.85 6.46-4.685-.82-6.447-6.444-8.57-11.41L240.016 41zm31.25 86.113c.235.003.48.016.734.04 5.087.508 7.665 5.963 11.2 10.476l1.212 10.438a9.6 10.338 0 0 0-9.213-7.453 9.6 10.338 0 0 0-9.6 10.338 9.6 10.338 0 0 0 9.6 10.338 9.6 10.338 0 0 0 9.585-10.01l2.817 24.265 4.13 2.225c15.45 8.318 26.69 16.527 33.672 24.046 6.982 7.52 9.596 13.893 9.596 19.723v42.69h-25.568A64 94.77 0 0 0 256 221.54a64 94.77 0 0 0-53.416 42.69H177v-42.69c0-5.83 2.614-12.204 9.596-19.724s18.223-15.728 33.672-24.046l4.13-2.225 4.047-34.856c3.09 2.163 6.88 3.695 11.555 3.695 10.237 0 16.543-6.503 21.54-10.772 4.686-4.002 6.196-6.534 9.726-6.5zM256 166.4a9.6 10.338 0 0 0-9.6 10.338 9.6 10.338 0 0 0 9.6 10.338 9.6 10.338 0 0 0 9.6-10.338A9.6 10.338 0 0 0 256 166.4zm19.2 15.57a9.6 10.338 0 0 0-9.6 10.337 9.6 10.338 0 0 0 9.6 10.338 9.6 10.338 0 0 0 9.6-10.338 9.6 10.338 0 0 0-9.6-10.338zM256 247c13.42 0 23.9 9.857 30.578 22.445 1.962 3.698 3.663 7.726 5.098 12.016H336v18h-40.156c.757 5.4 1.156 11.038 1.156 16.85 0 12.354-1.775 23.944-5.06 34.075H336v18h-52.535c-6.64 9.987-15.97 17.23-27.465 17.23-11.496 0-20.825-7.243-27.465-17.23H176v-18h44.06c-3.285-10.13-5.06-21.72-5.06-34.076 0-5.812.4-11.45 1.156-16.85H176v-18h44.324c1.435-4.29 3.136-8.317 5.098-12.015C232.102 256.857 242.58 247 256 247zm0 18c-4.253 0-9.775 3.644-14.678 12.883-4.902 9.24-8.322 23.063-8.322 38.426 0 15.362 3.42 29.183 8.322 38.422 4.903 9.24 10.425 12.883 14.678 12.883s9.775-3.643 14.678-12.883c4.902-9.24 8.322-23.06 8.322-38.423 0-15.364-3.42-29.188-8.322-38.427C265.775 268.643 260.253 265 256 265zm-79 120.615h35.47a64 94.77 0 0 0 43.53 25.46 64 94.77 0 0 0 43.572-25.46H335v59.924c0 5.83-2.953 12.567-7.596 17.567-4.643 5-10.635 7.893-15.404 7.893H199.697c-4.555 0-10.502-2.867-15.12-7.873-4.62-5.006-7.577-11.758-7.577-17.588v-59.925z"
     id="path2"
     style="filter:url(#filter839)" />
</svg>
