<?xml version="1.0" encoding="UTF-8" standalone="no"?>
<svg
   xmlns:dc="http://purl.org/dc/elements/1.1/"
   xmlns:cc="http://creativecommons.org/ns#"
   xmlns:rdf="http://www.w3.org/1999/02/22-rdf-syntax-ns#"
   xmlns:svg="http://www.w3.org/2000/svg"
   xmlns="http://www.w3.org/2000/svg"
   xmlns:sodipodi="http://sodipodi.sourceforge.net/DTD/sodipodi-0.dtd"
   xmlns:inkscape="http://www.inkscape.org/namespaces/inkscape"
   viewBox="0 0 512 512"
   version="1.1"
   id="svg4"
   sodipodi:docname="grapple2.svg"
   inkscape:version="1.0.1 (3bc2e813f5, 2020-09-07)">
  <metadata
     id="metadata10">
    <rdf:RDF>
      <cc:Work
         rdf:about="">
        <dc:format>image/svg+xml</dc:format>
        <dc:type
           rdf:resource="http://purl.org/dc/dcmitype/StillImage" />
        <dc:title></dc:title>
      </cc:Work>
    </rdf:RDF>
  </metadata>
  <defs
     id="defs8">
    <filter
       style="color-interpolation-filters:sRGB;"
       inkscape:label="Invert"
       id="filter16">
      <feColorMatrix
         type="hueRotate"
         values="180"
         result="color1"
         id="feColorMatrix12" />
      <feColorMatrix
         values="-1 0 0 0 1 0 -1 0 0 1 0 0 -1 0 1 -0.21 -0.72 -0.07 2 0 "
         result="color2"
         id="feColorMatrix14" />
    </filter>
  </defs>
  <sodipodi:namedview
     pagecolor="#ffffff"
     bordercolor="#666666"
     borderopacity="1"
     objecttolerance="10"
     gridtolerance="10"
     guidetolerance="10"
     inkscape:pageopacity="0"
     inkscape:pageshadow="2"
     inkscape:window-width="1141"
     inkscape:window-height="851"
     id="namedview6"
     showgrid="false"
     inkscape:zoom="1.6796875"
     inkscape:cx="256"
     inkscape:cy="256"
     inkscape:window-x="0"
     inkscape:window-y="0"
     inkscape:window-maximized="0"
     inkscape:current-layer="svg4" />
  <path
     d="M337.63 24.242l-86.044 87.965 61.283-21.33 1.532 19.115.112-.01 5.218 62.72-18.625 1.548-.002-.03-25.53 25.48 25.857 25.83 25.21-25.16 2.317-17.567 59.02 7.787-.03.213 28.118 3.46-19.656 44.573 94.922-68.018-63.275-12.964-.01.042-51.67-10.414 3.69-18.32 22.975 4.63 16.137-57.24-53.256 19.56 3.234 28.138-18.566 2.135-3.787-32.948-9.176-69.195zM231.616 128.156L183.05 210.96l66.036-42.683 24.453 7.05 25.536-25.487-.256-3.074-67.205-18.61zm117.53 76.16l-19.237 19.198 4.492 11.006-49.308 73.593 90.35-55.24-17.077-47.34-9.22-1.217zm-79.098 16.276c-2.71 43.464-37.206 77.36-79.184 77.353-54.24-.01-98.053 45.767-98.043 101.56.008 43.487-31.728 78.71-72.072 82.524v13.052h25.897c37.86-14.145 64.87-51.776 64.863-95.58-.008-46.077 35.614-82.876 79.35-82.867h.003c46.896.007 85.98-34.213 95.71-79.537l-16.523-16.506z"
     id="path2"
     style="filter:url(#filter16)" />
</svg>
