<?xml version="1.0" encoding="UTF-8" standalone="no"?>
<svg
   xmlns:dc="http://purl.org/dc/elements/1.1/"
   xmlns:cc="http://creativecommons.org/ns#"
   xmlns:rdf="http://www.w3.org/1999/02/22-rdf-syntax-ns#"
   xmlns:svg="http://www.w3.org/2000/svg"
   xmlns="http://www.w3.org/2000/svg"
   xmlns:sodipodi="http://sodipodi.sourceforge.net/DTD/sodipodi-0.dtd"
   xmlns:inkscape="http://www.inkscape.org/namespaces/inkscape"
   viewBox="0 0 512 512"
   version="1.1"
   id="svg4"
   sodipodi:docname="luger2.svg"
   inkscape:version="1.0.1 (3bc2e813f5, 2020-09-07)">
  <metadata
     id="metadata10">
    <rdf:RDF>
      <cc:Work
         rdf:about="">
        <dc:format>image/svg+xml</dc:format>
        <dc:type
           rdf:resource="http://purl.org/dc/dcmitype/StillImage" />
        <dc:title></dc:title>
      </cc:Work>
    </rdf:RDF>
  </metadata>
  <defs
     id="defs8">
    <filter
       style="color-interpolation-filters:sRGB;"
       inkscape:label="Invert"
       id="filter16">
      <feColorMatrix
         type="hueRotate"
         values="180"
         result="color1"
         id="feColorMatrix12" />
      <feColorMatrix
         values="-1 0 0 0 1 0 -1 0 0 1 0 0 -1 0 1 -0.21 -0.72 -0.07 2 0 "
         result="color2"
         id="feColorMatrix14" />
    </filter>
  </defs>
  <sodipodi:namedview
     pagecolor="#ffffff"
     bordercolor="#666666"
     borderopacity="1"
     objecttolerance="10"
     gridtolerance="10"
     guidetolerance="10"
     inkscape:pageopacity="0"
     inkscape:pageshadow="2"
     inkscape:window-width="1920"
     inkscape:window-height="1027"
     id="namedview6"
     showgrid="false"
     inkscape:zoom="1.6796875"
     inkscape:cx="256"
     inkscape:cy="256"
     inkscape:window-x="-8"
     inkscape:window-y="-8"
     inkscape:window-maximized="1"
     inkscape:current-layer="svg4" />
  <path
     d="M42.652 136.716v32.494a24.107 24.107 0 0 0 8.168 18.1h270.5v-50.406a7.302 7.302 0 0 0-7.146-5.978h-81.512a19.33 19.33 0 0 0-18.172-12.768h-58.948c6.208 25.003-12.71 49.193-38.472 49.193S72.39 143.16 78.6 118.16H61.136c-10.223.035-18.49 8.335-18.485 18.558zm409.04 1.554l2.65-3.38 7.896-11.474c3.297-4.768 8.94-4.768 12.236 0l7.615 14.802h8.835v29.344H338.01V138.27h113.703zM39.074 396.064c18.09 15.597 51.33 13.933 71.643 1.366 21.22-13.127 4.11-31.993 32.13-67.606 8.595-10.932 31.41-42.446 51.47-71.06 6.174-8.814 18.035-3.522 43.602 6.607 6.363 1.39 14.48 1.79 18.578 2.132 19.016 0 42.086-17.687 44.218-32.423 2.173-15.016-6.757-19.388 2.828-21.993 3.328-.905 9.26-5.045 9.67-9.067h-41.027c8.512 4.59 14.145 12.518 14.145 21.49 0 14.186-13.99 25.68-31.295 25.68-17.306 0-31.294-11.474-31.294-25.68 0-8.993 5.633-16.9 14.145-21.49H77.754c23.19 20.206 11.09 43.812 2.806 55.412l-52.158 73.24c-14.555 20.452-5.557 49.4 10.672 63.392zm21.14-38.28c0-11.868 14.347-17.81 22.74-9.418 8.39 8.39 2.448 22.74-9.42 22.74-7.357 0-13.32-5.964-13.32-13.32zm188.2-117.13c-9.727-7.012-7.78-25.204-5.018-36.613h12.8c-7.575 8.55-11.452 27.26-7.783 36.615zM140.008 127.64c0 20.447-24.72 30.684-39.177 16.227-14.456-14.456-4.22-39.176 16.227-39.176 12.674 0 22.95 10.276 22.95 22.95z"
     id="path2"
     style="filter:url(#filter16)" />
</svg>
