<?xml version="1.0" encoding="UTF-8" standalone="no"?>
<svg
   xmlns:dc="http://purl.org/dc/elements/1.1/"
   xmlns:cc="http://creativecommons.org/ns#"
   xmlns:rdf="http://www.w3.org/1999/02/22-rdf-syntax-ns#"
   xmlns:svg="http://www.w3.org/2000/svg"
   xmlns="http://www.w3.org/2000/svg"
   xmlns:sodipodi="http://sodipodi.sourceforge.net/DTD/sodipodi-0.dtd"
   xmlns:inkscape="http://www.inkscape.org/namespaces/inkscape"
   viewBox="0 0 512 512"
   version="1.1"
   id="svg4"
   sodipodi:docname="meal2.svg"
   inkscape:version="1.0.1 (3bc2e813f5, 2020-09-07)">
  <metadata
     id="metadata10">
    <rdf:RDF>
      <cc:Work
         rdf:about="">
        <dc:format>image/svg+xml</dc:format>
        <dc:type
           rdf:resource="http://purl.org/dc/dcmitype/StillImage" />
        <dc:title></dc:title>
      </cc:Work>
    </rdf:RDF>
  </metadata>
  <defs
     id="defs8">
    <filter
       style="color-interpolation-filters:sRGB;"
       inkscape:label="Invert"
       id="filter839">
      <feColorMatrix
         type="hueRotate"
         values="180"
         result="color1"
         id="feColorMatrix835" />
      <feColorMatrix
         values="-1 0 0 0 1 0 -1 0 0 1 0 0 -1 0 1 -0.21 -0.72 -0.07 2 0 "
         result="color2"
         id="feColorMatrix837" />
    </filter>
  </defs>
  <sodipodi:namedview
     pagecolor="#ffffff"
     bordercolor="#666666"
     borderopacity="1"
     objecttolerance="10"
     gridtolerance="10"
     guidetolerance="10"
     inkscape:pageopacity="0"
     inkscape:pageshadow="2"
     inkscape:window-width="1920"
     inkscape:window-height="1027"
     id="namedview6"
     showgrid="false"
     inkscape:zoom="1.6796875"
     inkscape:cx="256"
     inkscape:cy="256"
     inkscape:window-x="-8"
     inkscape:window-y="-8"
     inkscape:window-maximized="1"
     inkscape:current-layer="svg4" />
  <path
     d="M445.588 56l-.026 384.352c6.881 11.323 14 15.677 19.97 15.648 5.924-.028 12.967-4.434 19.714-15.418L466.82 244.27l-.215-2.391 1.475-1.906c21.174-27.169 28.573-74.108 22.533-113.81-3.02-19.852-9.342-37.82-18.195-50.522-7.424-10.652-16.28-17.447-26.828-19.641h-.002zm-372.375.004l-.016 67.127-12.56-.016V56.008H46.332l.002 67.11H33.756v-67.11h-14.57v103.228c-.001 11.417 6.23 17.748 16.04 21.662l4.06 1.622-.09 4.37c-2 84.57-3.977 169.139-5.962 253.708C40.074 451.79 47.1 456.028 52.95 456c5.85-.028 12.87-4.377 19.623-15.432-2.315-84.547-4.63-169.096-6.941-253.644l-.12-4.4 4.073-1.606c10.324-4.106 17.039-11.074 17.039-21.676V56.004h-13.41zM256 95A161 161 0 0 0 95 256a161 161 0 0 0 161 161 161 161 0 0 0 161-161A161 161 0 0 0 256 95z"
     id="path2"
     style="filter:url(#filter839)" />
</svg>
