<?xml version="1.0" encoding="UTF-8" standalone="no"?>
<svg
   xmlns:dc="http://purl.org/dc/elements/1.1/"
   xmlns:cc="http://creativecommons.org/ns#"
   xmlns:rdf="http://www.w3.org/1999/02/22-rdf-syntax-ns#"
   xmlns:svg="http://www.w3.org/2000/svg"
   xmlns="http://www.w3.org/2000/svg"
   xmlns:sodipodi="http://sodipodi.sourceforge.net/DTD/sodipodi-0.dtd"
   xmlns:inkscape="http://www.inkscape.org/namespaces/inkscape"
   viewBox="0 0 512 512"
   version="1.1"
   id="svg4"
   sodipodi:docname="monkey-wrench2.svg"
   inkscape:version="1.0.1 (3bc2e813f5, 2020-09-07)">
  <metadata
     id="metadata10">
    <rdf:RDF>
      <cc:Work
         rdf:about="">
        <dc:format>image/svg+xml</dc:format>
        <dc:type
           rdf:resource="http://purl.org/dc/dcmitype/StillImage" />
        <dc:title></dc:title>
      </cc:Work>
    </rdf:RDF>
  </metadata>
  <defs
     id="defs8">
    <filter
       style="color-interpolation-filters:sRGB;"
       inkscape:label="Invert"
       id="filter16">
      <feColorMatrix
         type="hueRotate"
         values="180"
         result="color1"
         id="feColorMatrix12" />
      <feColorMatrix
         values="-1 0 0 0 1 0 -1 0 0 1 0 0 -1 0 1 -0.21 -0.72 -0.07 2 0 "
         result="color2"
         id="feColorMatrix14" />
    </filter>
  </defs>
  <sodipodi:namedview
     pagecolor="#ffffff"
     bordercolor="#666666"
     borderopacity="1"
     objecttolerance="10"
     gridtolerance="10"
     guidetolerance="10"
     inkscape:pageopacity="0"
     inkscape:pageshadow="2"
     inkscape:window-width="1920"
     inkscape:window-height="1027"
     id="namedview6"
     showgrid="false"
     inkscape:zoom="1.6796875"
     inkscape:cx="384.89302"
     inkscape:cy="256"
     inkscape:window-x="-8"
     inkscape:window-y="-8"
     inkscape:window-maximized="1"
     inkscape:current-layer="svg4" />
  <path
     d="m 417.972,37.51 c -1.67,-0.02 -3.093,0.17 -4.218,0.544 l -20.127,6.71 63.95,63.948 -22.628,22.627 21.212,21.212 27.576,-27.578 c 6.01002,-6.01 7.03999,-13.12 4.383,-23.152 -2.655,-10.033 -9.698,-21.883 -18.933,-32.438 -9.235,-10.554 -20.62,-19.874 -31.123,-25.603 -7.878,-4.297 -15.083,-6.214 -20.092,-6.27 z m -63.634,61.3 -45.952,45.95 c 5.99,1.255 12.28,2.304 18.506,2.534 12.166,0.45 23.204,-1.815 32.397,-11.008 l 6.362,-6.363 17.64,17.64 0.073,0.073 4.914,4.914 9.9,-9.9 -43.842,-43.84 z m 67.884,45.254 -21.214,21.215 21.212,21.213 21.213,-21.214 -21.21,-21.214 z m -56.57,14.156 c -1.773,0 -3.545,0.703 -4.95,2.107 -2.808,2.808 -2.808,7.09 0,9.9 2.81,2.81 7.09,2.81 9.9,0 2.808,-2.81 2.808,-7.092 0,-9.9 -1.405,-1.405 -3.177,-2.108 -4.95,-2.108 z m -72.32,1.596 -28.09,28.09 93.516,93.513 c 1.927,-0.694 5.33,-2.472 9.257,-5.14 4.036,-2.746 8.643,-6.35 13.44,-10.464 -7.204,2.642 -15.128,1.97 -21.463,-4.366 l -33.942,-33.94 c -16.086,-16.088 4.237,-42.443 23.043,-41.142 1.67,0.116 3.328,0.455 4.948,1.034 -2.19,-1.138 -4.24,-2.62 -6.066,-4.446 -5.053,-5.053 -7.464,-11.816 -7.246,-18.507 -4.92,0.785 -9.81,1.008 -14.502,0.834 -12.924,-0.478 -24.25,-3.404 -32.894,-5.466 z m 94.226,17.47 c -1.107,2.04 -2.513,3.953 -4.228,5.668 -7.18,7.18 -17.813,9.033 -26.78,5.573 1.688,0.903 3.32,2.09 4.856,3.624 l 33.94,33.94 c 6.817,6.816 7.093,15.475 3.722,23.093 8.43,-8.698 16.1,-17.75 21.014,-24.975 2.67,-3.925 4.45,-7.328 5.144,-9.256 L 387.558,177.285 Z M 254.3,202.42 l -26.195,43.66 4.04,19.296 17.374,3.31 35.523,-35.523 z m 93.024,1.96 c -3.75,0.04 -11.022,7.926 -8.547,10.4 l 33.94,33.942 c 2.83,2.828 12.73,-7.07 9.902,-9.898 l -33.943,-33.942 c -0.353,-0.353 -0.817,-0.508 -1.353,-0.502 z m -38.24,52.824 -4.95,4.95 c -7.424,7.424 -10.522,14.256 -11.244,19.304 -0.72,5.05 0.637,8.274 2.758,10.395 2.12,2.12 5.346,3.48 10.395,2.758 5.048,-0.72 11.88,-3.82 19.304,-11.244 l 4.95,-4.95 -21.213,-21.212 z m -95.91,5.4 L 47.7,428.076 c 4.836,1.544 9.377,4.213 13.188,8.024 3.812,3.813 6.48,8.357 8.024,13.192 l 165.215,-165.215 -17.143,-3.265 -3.81,-18.21 z M 37.554,444.377 c -3.82,0 -7.638,1.485 -10.605,4.45 -5.934,5.935 -5.934,15.28 0,21.214 5.932,5.934 15.28,5.934 21.212,0 5.933,-5.933 5.933,-15.28 0,-21.213 -2.967,-2.967 -6.788,-4.452 -10.608,-4.452 z"
     id="path2"
     style="stroke-width:1;filter:url(#filter16)" />
</svg>
