<?xml version="1.0" encoding="UTF-8" standalone="no"?>
<svg
   xmlns:dc="http://purl.org/dc/elements/1.1/"
   xmlns:cc="http://creativecommons.org/ns#"
   xmlns:rdf="http://www.w3.org/1999/02/22-rdf-syntax-ns#"
   xmlns:svg="http://www.w3.org/2000/svg"
   xmlns="http://www.w3.org/2000/svg"
   xmlns:sodipodi="http://sodipodi.sourceforge.net/DTD/sodipodi-0.dtd"
   xmlns:inkscape="http://www.inkscape.org/namespaces/inkscape"
   viewBox="0 0 512 512"
   version="1.1"
   id="svg4"
   sodipodi:docname="square-bottle2.svg"
   inkscape:version="1.0.1 (3bc2e813f5, 2020-09-07)">
  <metadata
     id="metadata10">
    <rdf:RDF>
      <cc:Work
         rdf:about="">
        <dc:format>image/svg+xml</dc:format>
        <dc:type
           rdf:resource="http://purl.org/dc/dcmitype/StillImage" />
        <dc:title></dc:title>
      </cc:Work>
    </rdf:RDF>
  </metadata>
  <defs
     id="defs8">
    <filter
       style="color-interpolation-filters:sRGB;"
       inkscape:label="Invert"
       id="filter16">
      <feColorMatrix
         type="hueRotate"
         values="180"
         result="color1"
         id="feColorMatrix12" />
      <feColorMatrix
         values="-1 0 0 0 1 0 -1 0 0 1 0 0 -1 0 1 -0.21 -0.72 -0.07 2 0 "
         result="color2"
         id="feColorMatrix14" />
    </filter>
  </defs>
  <sodipodi:namedview
     pagecolor="#ffffff"
     bordercolor="#666666"
     borderopacity="1"
     objecttolerance="10"
     gridtolerance="10"
     guidetolerance="10"
     inkscape:pageopacity="0"
     inkscape:pageshadow="2"
     inkscape:window-width="1920"
     inkscape:window-height="1027"
     id="namedview6"
     showgrid="false"
     inkscape:zoom="1.6796875"
     inkscape:cx="256"
     inkscape:cy="256"
     inkscape:window-x="-8"
     inkscape:window-y="-8"
     inkscape:window-maximized="1"
     inkscape:current-layer="svg4" />
  <path
     d="M345.98 19.586c-1.09-.01-2.16.003-3.21.04-14.725.51-25.865 5.643-32.153 14.51-7.185 10.132-7.67 24.62-.822 41.247 6.846 16.626 21.065 34.485 40.953 48.572 19.888 14.088 41.458 21.58 59.426 22.527 17.968.95 31.494-4.31 38.68-14.443 7.185-10.134 7.668-24.622.822-41.25-6.847-16.626-21.065-34.484-40.953-48.57-19.89-14.09-41.46-21.58-59.428-22.53-1.123-.058-2.23-.093-3.316-.104zM298.22 94.19l-18.843 26.57c-.426.6-.822 1.21-1.2 1.824-9.132-2.42-18.316-3.953-27.396-4.45-1.846-.103-3.69-.16-5.532-.167-1.84-.008-3.677.032-5.506.12-25.606 1.223-49.86 11.905-66.183 34.923L42.173 338.283l3.36 5.295 73.284 115.496 139.416 32.256 131.534-185.48c18.69-26.36 18.7-57.108 7.337-84.4-4.775-11.47-11.45-22.476-19.53-32.764l17.872-25.206c-6.33-1.17-12.76-2.914-19.21-5.216l-14.682 20.705c-3.764 5.305-9.15 7.028-17.74 6.096-8.592-.93-19.306-5.348-28.565-11.812-9.26-6.464-17.03-14.963-20.744-22.662-3.714-7.7-3.917-13.336.115-19.022l14.816-20.888c-4.288-5.357-8.05-10.877-11.217-16.49zm-53.087 42.453c1.526.015 3.067.065 4.623.15 7.63.42 15.552 1.76 23.556 3.896.07 6.236 1.67 12.445 4.36 18.02 5.657 11.73 15.496 21.918 26.88 29.866 11.385 7.95 24.345 13.67 37.25 15.07 7.192.78 14.702-.048 21.356-2.92 7.02 8.99 12.742 18.416 16.694 27.907 9.56 22.965 9.542 45.436-5.33 66.406l-12.932 18.237-94.926-49.017 23.775-33.528-15.245-10.81-29.174 41.14-147.077 29.477 89.86-126.72c12.97-18.29 30.85-26.31 51.795-27.115 1.496-.057 3.008-.077 4.535-.062zM93.418 298.33l92.094 48.057-61.254 86.377-59.582-93.9 28.742-40.534zm262.506 22.938l-105.686 149.03-111.408-25.775 67.33-94.945 149.764-28.31z"
     id="path2"
     style="filter:url(#filter16)" />
</svg>
