<?xml version="1.0" encoding="UTF-8" standalone="no"?>
<svg
   xmlns:dc="http://purl.org/dc/elements/1.1/"
   xmlns:cc="http://creativecommons.org/ns#"
   xmlns:rdf="http://www.w3.org/1999/02/22-rdf-syntax-ns#"
   xmlns:svg="http://www.w3.org/2000/svg"
   xmlns="http://www.w3.org/2000/svg"
   xmlns:sodipodi="http://sodipodi.sourceforge.net/DTD/sodipodi-0.dtd"
   xmlns:inkscape="http://www.inkscape.org/namespaces/inkscape"
   viewBox="0 0 512 512"
   version="1.1"
   id="svg4"
   sodipodi:docname="walther-ppk2.svg"
   inkscape:version="1.0.1 (3bc2e813f5, 2020-09-07)">
  <metadata
     id="metadata10">
    <rdf:RDF>
      <cc:Work
         rdf:about="">
        <dc:format>image/svg+xml</dc:format>
        <dc:type
           rdf:resource="http://purl.org/dc/dcmitype/StillImage" />
        <dc:title></dc:title>
      </cc:Work>
    </rdf:RDF>
  </metadata>
  <defs
     id="defs8">
    <filter
       style="color-interpolation-filters:sRGB;"
       inkscape:label="Invert"
       id="filter16">
      <feColorMatrix
         type="hueRotate"
         values="180"
         result="color1"
         id="feColorMatrix12" />
      <feColorMatrix
         values="-1 0 0 0 1 0 -1 0 0 1 0 0 -1 0 1 -0.21 -0.72 -0.07 2 0 "
         result="color2"
         id="feColorMatrix14" />
    </filter>
  </defs>
  <sodipodi:namedview
     pagecolor="#ffffff"
     bordercolor="#666666"
     borderopacity="1"
     objecttolerance="10"
     gridtolerance="10"
     guidetolerance="10"
     inkscape:pageopacity="0"
     inkscape:pageshadow="2"
     inkscape:window-width="1920"
     inkscape:window-height="1027"
     id="namedview6"
     showgrid="false"
     inkscape:zoom="1.6796875"
     inkscape:cx="256"
     inkscape:cy="256"
     inkscape:window-x="-8"
     inkscape:window-y="-8"
     inkscape:window-maximized="1"
     inkscape:current-layer="svg4" />
  <path
     d="M87.521 127.04c2.74-4.22 5.3-8.36 7.56-12.14a16.24 16.24 0 1 0-16.15 24.7c2.54-3.48 5.39-7.63 8.59-12.56zm46.66-52.82h7.29l6.28 15.05h-20.33zm306.09 5.28l21 7v.82l-21 .15v-8zm-259.62 358.28l-88.38-21.21 3.14-18.35h77.66c-7.24 20 14.2 32.63 7.58 39.56zm306.62-324.56v48h-7v-48zm-203.19 103.8c1.3 22.32 22.53 31.63 22.53 31.63-33-2-30.7-33.74-30.7-33.74l-3.13-3.53a54.07 54.07 0 0 1 12.49-3.52 23.08 23.08 0 0 0-1.19 9.16zm-201.1-56.8h381.29v-56.94l-345.54 2.49s-18.71 34.45-35.75 54.45zm59.87-21.93a12.79 12.79 0 1 1 12.79 12.79 12.79 12.79 0 0 1-12.79-12.79zm97.08 37.93l-19.08 88.11 2.45-.69a14.66 14.66 0 0 1 3.82-.4c13.43-.02 40.15 12.23 70.15 12.23a100.11 100.11 0 0 0 14.9-1c32.79-4.92 46.43-30.55 54.3-60.55 7.73-29.44 87.78-23.66 97-37.66h-223.54zm.39 52.83c0-21 24.51-38 54.74-38s54.74 17 54.74 38-24.51 38-54.74 38-54.74-17.02-54.74-38zm-153.05 7.66c-7.29 27.59-35.59 84.94-44.4 99.87-11.42 19.35-3.81 45.65-3.81 45.65h139.1s17.34-77.15 21.11-95.69a36.68 36.68 0 0 1 1.53-5.41l22.76-104.91H57.631c-22.1 6-44.41 7.64-26.2 26.93a90.43 90.43 0 0 1 17.07-1.78c30.42 0 43.05 19.08 38.77 35.34zm15.23 1.42c9.31-23.58 53.32-36.49 78.15-28.57 16.37 5.22 23.59 18.77 19.3 36.17-6.2 25.2-29.75 119.44-30 120.39l-1.51 6.1h-99.5l-.86-.23a16.8 16.8 0 0 1-10.56-8.51c-3.18-6-2.91-13.78.82-23.1 3.44-8.6 11.41-26.71 19.85-45.89 9.73-22.17 19.82-45.05 24.28-56.36zm73.29-13.37c8.34 2.66 10.92 7.8 8.63 17.1-5.31 21.43-23.15 92.36-28.49 114.36h-84.23c-.62-1-.72-4.31 1.48-9.82 3.34-8.35 11.26-26.37 19.64-45.43 9.81-22.31 20-45.39 24.54-57 5.45-13.8 39.85-25.13 58.4-19.21z"
     id="path2"
     style="filter:url(#filter16)" />
</svg>
