<svg xmlns="http://www.w3.org/2000/svg" viewBox="0 0 512 512" style="height: 512px; width: 512px;"><defs><filter id="shadow-1" height="300%" width="300%" x="-100%" y="-100%"><feFlood flood-color="rgba(12, 12, 50, 1)" result="flood"></feFlood><feComposite in="flood" in2="SourceGraphic" operator="atop" result="composite"></feComposite><feGaussianBlur in="composite" stdDeviation="20" result="blur"></feGaussianBlur><feOffset dx="0" dy="0" result="offset"></feOffset><feComposite in="SourceGraphic" in2="offset" operator="over"></feComposite></filter></defs><g class="" transform="translate(0,0)" style=""><path d="M395.13 313l89.869-100.857H388.08c-45.748 0-82.824-37.063-82.824-82.824l-.297-33.208-100.857-77.147v96.917c0 45.751-37.06 82.824-82.822 82.824l-9.844.298L27.001 299.86h96.92c45.75 0 82.822 37.062 82.822 82.824l.298 20.484 100.854 89.868v-96.913c0-45.749 37.062-82.823 82.824-82.823zM256 306.669c-27.99 0-50.666-22.685-50.666-50.665 0-27.99 22.679-50.671 50.665-50.671 27.99 0 50.67 22.682 50.67 50.671 0 27.98-22.683 50.665-50.67 50.665z" fill="#ffffff" fill-opacity="1" transform="translate(25.6, 25.6) scale(0.9, 0.9) rotate(0, 256, 256) skewX(0) skewY(0)" filter="url(#shadow-1)"></path></g></svg>