<svg xmlns="http://www.w3.org/2000/svg" viewBox="0 0 512 512" style="height: 512px; width: 512px;"><defs><filter id="shadow-1" height="300%" width="300%" x="-100%" y="-100%"><feFlood flood-color="rgba(12, 12, 50, 1)" result="flood"></feFlood><feComposite in="flood" in2="SourceGraphic" operator="atop" result="composite"></feComposite><feGaussianBlur in="composite" stdDeviation="20" result="blur"></feGaussianBlur><feOffset dx="0" dy="0" result="offset"></feOffset><feComposite in="SourceGraphic" in2="offset" operator="over"></feComposite></filter></defs><g class="" transform="translate(0,0)" style=""><path d="M204.344 15.656c-1.834 41.508-21.638 86.793-58.313 123.47-36.46 36.464-81.78 56.622-123.093 58.655 50.013 17.25 107.817 5.874 147.72-34.03 39.9-39.904 51.21-97.952 33.687-148.094zM21.28 20.376v115.968c9.573 3.68 20.1 5.844 30.845 5.844 47.224 0 85.094-37.857 85.094-85.063 0-12.952-3.6-25.453-9.126-36.75H21.28zm261.064 4.218c-2.53 57.284-29.825 119.79-80.438 170.406-50.32 50.323-112.865 78.132-169.875 80.938 69.022 23.803 148.777 8.1 203.845-46.97 55.27-55.273 70.648-135.174 46.47-204.374zM370 27.25c-3.388 76.7-39.92 160.386-107.688 228.156-67.376 67.38-151.135 104.617-227.468 108.375 92.413 31.87 199.205 10.833 272.937-62.905 74.006-74.01 94.596-180.97 62.22-273.625zm101.75 22.03c-4.192 94.902-49.43 198.427-133.28 282.283-83.365 83.37-186.99 129.475-281.44 134.125 114.347 39.432 246.492 13.42 337.72-77.813 91.567-91.574 117.06-223.95 77-338.594z" fill="#ffffff" fill-opacity="1" transform="translate(25.6, 25.6) scale(0.9, 0.9) rotate(0, 256, 256) skewX(0) skewY(0)" filter="url(#shadow-1)"></path></g></svg>