<svg xmlns="http://www.w3.org/2000/svg" viewBox="0 0 512 512" style="height: 512px; width: 512px;"><defs><filter id="shadow-1" height="300%" width="300%" x="-100%" y="-100%"><feFlood flood-color="rgba(12, 12, 50, 1)" result="flood"></feFlood><feComposite in="flood" in2="SourceGraphic" operator="atop" result="composite"></feComposite><feGaussianBlur in="composite" stdDeviation="20" result="blur"></feGaussianBlur><feOffset dx="0" dy="0" result="offset"></feOffset><feComposite in="SourceGraphic" in2="offset" operator="over"></feComposite></filter></defs><g class="" transform="translate(0,0)" style=""><path d="M208 95c-3.583 0-7.736 1.925-9.977 4.613-2.24 2.69-2.99 5.447-3.4 7.907-.82 4.92-.247 9.48.5 13.96.316 1.897.698 3.748 1.096 5.52h18.534c-.67-2.54-1.387-5.542-1.877-8.48-.35-2.093-.483-3.963-.53-5.52h87.305c-.046 1.557-.18 3.427-.53 5.52-.49 2.938-1.205 5.94-1.876 8.48h18.535c.4-1.772.78-3.623 1.097-5.52.747-4.48 1.32-9.04.5-13.96-.41-2.46-1.16-5.218-3.4-7.907C311.737 96.925 307.583 95 304 95h-96zm-105 16v18h50v-18h-50zm256 0v18h50v-18h-50zM96 145c-5 0-11.05 2.777-15.637 7.363C75.777 156.95 73 163 73 168v208c0 5 2.777 11.05 7.363 15.637C84.95 396.223 91 399 96 399h23V145H96zm41 0v254h238V145H137zm256 0v254h23c5 0 11.05-2.777 15.637-7.363C436.223 387.05 439 381 439 376V168c0-5-2.777-11.05-7.363-15.637C427.05 147.777 421 145 416 145h-23z" fill="#ffffff" fill-opacity="1" transform="translate(25.6, 25.6) scale(0.9, 0.9) rotate(0, 256, 256) skewX(0) skewY(0)" filter="url(#shadow-1)"></path></g></svg>