<svg xmlns="http://www.w3.org/2000/svg" viewBox="0 0 512 512" style="height: 512px; width: 512px;"><defs><filter id="shadow-1" height="300%" width="300%" x="-100%" y="-100%"><feFlood flood-color="rgba(12, 12, 50, 1)" result="flood"></feFlood><feComposite in="flood" in2="SourceGraphic" operator="atop" result="composite"></feComposite><feGaussianBlur in="composite" stdDeviation="20" result="blur"></feGaussianBlur><feOffset dx="0" dy="0" result="offset"></feOffset><feComposite in="SourceGraphic" in2="offset" operator="over"></feComposite></filter></defs><g class="" transform="translate(0,0)" style=""><path d="M169 25v30h174V25H169zm-37.271 48L41 163.729V487h46V377H57V263h30v-74.729L156.271 119H355.73L425 188.271V375h46V163.729L380.271 73H131.73zm32 64L105 195.729V263h30v32h133.271L295 268.271V227.73l-48-48V137h-83.271zM265 137v35.271l48 48v55.458L293.729 295H407v-99.271L348.271 137H265zM75 281v78h42v-78H75zm60 32v14h272v-14H135zm0 32v32h-30v110h142v-19.271l-48-48V364.27L218.271 345H135zm108.729 0L217 371.729v40.542l48 48V487h142V345H243.729zM425 393v94h46v-94h-46z" fill="#ffffff" fill-opacity="1" transform="translate(25.6, 25.6) scale(0.9, 0.9) rotate(0, 256, 256) skewX(0) skewY(0)" filter="url(#shadow-1)"></path></g></svg>